# xmcd
#
# Track frame offsets:
#	150
#	15450
#	33566
#	54879
#	70953
#	86903
#	105950
#	127297
#	144116
#	163472
#	180881
#	198154
#	216755
#	227291
#	249601
#	263850
#
# Disc length: 3991 seconds
#
# Revision: 2
# Processed by: cddbd v1.5.2PL0 Copyright (c) Steve Scherf et al.
# Submitted via: EZCDAudioConverter 1.1.0.1
#
DISCID=d50f9510
DTITLE=Maciej Malenczuk - Psychocountry
DYEAR=2012
DGENRE=Country
TTITLE0=Od Jodłowej Idzie Wiosna
TTITLE1=Cats in the Cradle
TTITLE2=Give My Love To Rose
TTITLE3=Ballada o Dzikim Zachodzie
TTITLE4=Sprzedaj Mnie Faktowi
TTITLE5=Oli Ola
TTITLE6=\nPeace in the Valley
TTITLE7=Casey Jones
TTITLE8=Boy Named Sue
TTITLE9=Highwayman
TTITLE10=Don't Take Your Guns to Town
TTITLE11=Stand by Your Man
TTITLE12=I Got Stripes
TTITLE13=Nie Zna Życia Kto Nie Śmigał Za Fajansem
TTITLE14=Sixteen Tons
TTITLE15=If I Were a Carpenter
EXTD=
EXTT0=
EXTT1=
EXTT2=
EXTT3=
EXTT4=
EXTT5=
EXTT6=
EXTT7=
EXTT8=
EXTT9=
EXTT10=
EXTT11=
EXTT12=
EXTT13=
EXTT14=
EXTT15=
PLAYORDER=
